<?xml version="1.0" standalone="no"?>
<!DOCTYPE svg PUBLIC "-//W3C//DTD SVG 20010904//EN"
 "http://www.w3.org/TR/2001/REC-SVG-20010904/DTD/svg10.dtd">
<svg version="1.0" xmlns="http://www.w3.org/2000/svg"
 width="305.000000pt" height="305.000000pt" viewBox="0 0 305.000000 305.000000"
 preserveAspectRatio="xMidYMid meet">

<g transform="translate(0.000000,305.000000) scale(0.100000,-0.100000)"
fill="#000000" stroke="none">
<path d="M1330 3039 c-137 -20 -192 -33 -290 -66 -447 -151 -797 -495 -956
-940 -112 -316 -112 -700 0 -1016 156 -436 497 -777 933 -933 316 -112 700
-112 1016 0 436 156 777 497 933 933 112 316 112 700 0 1016 -79 221 -194 402
-362 571 -298 297 -665 447 -1089 445 -71 -1 -155 -5 -185 -10z m359 -1071
l330 -451 -29 -41 c-17 -23 -164 -234 -328 -471 l-299 -430 -131 -3 c-73 -1
-132 0 -132 4 0 5 458 682 586 865 l53 76 -93 129 c-51 71 -197 274 -324 452
l-232 322 134 0 134 0 331 -452z"/>
</g>
</svg>
