<?xml version="1.0" standalone="no"?>
<!DOCTYPE svg PUBLIC "-//W3C//DTD SVG 20010904//EN"
 "http://www.w3.org/TR/2001/REC-SVG-20010904/DTD/svg10.dtd">
<svg version="1.0" xmlns="http://www.w3.org/2000/svg"
 width="305.000000pt" height="305.000000pt" viewBox="0 0 305.000000 305.000000"
 preserveAspectRatio="xMidYMid meet">

<g transform="translate(0.000000,305.000000) scale(0.100000,-0.100000)"
fill="#000000" stroke="none">
<path d="M1250 3035 c-397 -74 -723 -280 -968 -610 -28 -38 -56 -76 -62 -82
-6 -7 -8 -13 -4 -13 4 0 1 -8 -7 -17 -12 -16 -35 -55 -60 -103 -12 -22 -44
-94 -45 -100 0 -3 -5 -16 -11 -30 -69 -167 -88 -284 -88 -555 0 -271 19 -388
88 -555 6 -14 11 -27 11 -30 2 -8 36 -83 53 -115 9 -16 21 -39 27 -50 6 -11
17 -28 25 -38 8 -9 11 -17 7 -17 -4 0 -2 -6 4 -13 6 -6 34 -43 62 -82 247
-333 572 -537 973 -610 108 -20 432 -20 540 0 401 73 726 277 973 610 28 39
56 76 62 82 6 7 8 13 4 13 -4 0 -1 8 7 18 12 15 35 54 60 102 12 22 44 94 45
100 0 3 5 16 11 30 69 167 88 284 88 555 0 271 -19 388 -88 555 -6 14 -11 27
-11 30 -2 8 -36 83 -53 115 -9 17 -21 39 -27 50 -6 11 -17 28 -25 38 -8 9 -11
17 -7 17 4 0 2 6 -4 13 -6 6 -34 44 -62 82 -247 333 -572 537 -973 610 -98 18
-449 18 -545 0z m439 -1067 l330 -451 -29 -41 c-17 -23 -164 -234 -328 -471
l-299 -430 -131 -3 c-73 -1 -132 0 -132 4 0 5 458 682 586 865 l53 76 -93 129
c-51 71 -197 274 -324 452 l-232 322 134 0 134 0 331 -452z"/>
</g>
</svg>
